<mxfile host="app.diagrams.net" modified="2024-06-24T08:08:39.948Z" agent="Mozilla/5.0 (Windows NT 10.0; Win64; x64) AppleWebKit/537.36 (KHTML, like Gecko) Chrome/126.0.0.0 Safari/537.36" etag="ATR42l97HYT6pXDTreqc" version="24.6.2" type="github">
  <diagram name="第 1 页" id="JNftJKLn8sERDnwJ5BrN">
    <mxGraphModel dx="1050" dy="530" grid="1" gridSize="10" guides="1" tooltips="1" connect="1" arrows="1" fold="1" page="1" pageScale="1" pageWidth="1654" pageHeight="2336" math="0" shadow="0">
      <root>
        <mxCell id="0" />
        <mxCell id="1" parent="0" />
        <mxCell id="7yjw_nO1AyyXJqypANe9-1" value="" style="edgeStyle=orthogonalEdgeStyle;rounded=0;orthogonalLoop=1;jettySize=auto;html=1;entryX=0;entryY=0.5;entryDx=0;entryDy=0;fontColor=#000000;fontFamily=Verdana;fontStyle=1;fontSize=14;" edge="1" parent="1" source="7yjw_nO1AyyXJqypANe9-3" target="7yjw_nO1AyyXJqypANe9-8">
          <mxGeometry relative="1" as="geometry">
            <mxPoint x="215" y="260" as="targetPoint" />
          </mxGeometry>
        </mxCell>
        <mxCell id="7yjw_nO1AyyXJqypANe9-2" value="办公网" style="edgeLabel;html=1;align=center;verticalAlign=middle;resizable=0;points=[];fontColor=#000000;fontFamily=Verdana;fontStyle=1;fontSize=14;" vertex="1" connectable="0" parent="7yjw_nO1AyyXJqypANe9-1">
          <mxGeometry x="-0.2333" y="-5" relative="1" as="geometry">
            <mxPoint x="-13" y="5" as="offset" />
          </mxGeometry>
        </mxCell>
        <mxCell id="7yjw_nO1AyyXJqypANe9-3" value="User" style="shape=umlActor;verticalLabelPosition=bottom;verticalAlign=top;html=1;outlineConnect=0;fontColor=#000000;fontFamily=Verdana;fontStyle=1;fontSize=14;" vertex="1" parent="1">
          <mxGeometry x="120" y="235" width="30" height="60" as="geometry" />
        </mxCell>
        <mxCell id="7yjw_nO1AyyXJqypANe9-4" style="edgeStyle=orthogonalEdgeStyle;rounded=0;orthogonalLoop=1;jettySize=auto;html=1;exitX=1;exitY=0.5;exitDx=0;exitDy=0;fontFamily=Verdana;fontStyle=1;fontSize=14;" edge="1" parent="1" source="7yjw_nO1AyyXJqypANe9-8">
          <mxGeometry relative="1" as="geometry">
            <mxPoint x="480" y="265" as="targetPoint" />
          </mxGeometry>
        </mxCell>
        <mxCell id="7yjw_nO1AyyXJqypANe9-5" value="DBA运维资源" style="edgeLabel;html=1;align=center;verticalAlign=middle;resizable=0;points=[];fontFamily=Verdana;fontStyle=1;fontSize=14;" vertex="1" connectable="0" parent="7yjw_nO1AyyXJqypANe9-4">
          <mxGeometry x="-0.1846" y="-2" relative="1" as="geometry">
            <mxPoint x="7" y="-17" as="offset" />
          </mxGeometry>
        </mxCell>
        <mxCell id="7yjw_nO1AyyXJqypANe9-6" style="edgeStyle=orthogonalEdgeStyle;rounded=0;orthogonalLoop=1;jettySize=auto;html=1;exitX=0.5;exitY=1;exitDx=0;exitDy=0;fontFamily=Verdana;fontStyle=1;fontSize=14;entryX=0.5;entryY=0;entryDx=0;entryDy=0;entryPerimeter=0;" edge="1" parent="1" source="7yjw_nO1AyyXJqypANe9-8" target="7yjw_nO1AyyXJqypANe9-15">
          <mxGeometry relative="1" as="geometry">
            <mxPoint x="315" y="400" as="targetPoint" />
          </mxGeometry>
        </mxCell>
        <mxCell id="7yjw_nO1AyyXJqypANe9-7" value="自运维资源" style="edgeLabel;html=1;align=center;verticalAlign=bottom;resizable=0;points=[];fontSize=14;fontStyle=1" vertex="1" connectable="0" parent="7yjw_nO1AyyXJqypANe9-6">
          <mxGeometry x="-0.28" y="-2" relative="1" as="geometry">
            <mxPoint x="2" y="15" as="offset" />
          </mxGeometry>
        </mxCell>
        <mxCell id="7yjw_nO1AyyXJqypANe9-8" value="生产/预发&lt;br style=&quot;font-size: 14px;&quot;&gt;数据库" style="shape=datastore;whiteSpace=wrap;html=1;fontColor=#000000;fontFamily=Verdana;fontStyle=1;fontSize=14;" vertex="1" parent="1">
          <mxGeometry x="280" y="230" width="70" height="70" as="geometry" />
        </mxCell>
        <mxCell id="7yjw_nO1AyyXJqypANe9-9" value="XMEN平台" style="ellipse;whiteSpace=wrap;html=1;fontFamily=Verdana;fontStyle=1;fontSize=14;" vertex="1" parent="1">
          <mxGeometry x="500" y="225" width="120" height="80" as="geometry" />
        </mxCell>
        <mxCell id="7yjw_nO1AyyXJqypANe9-10" value="堡垒机平台" style="ellipse;whiteSpace=wrap;html=1;fontFamily=Verdana;fontStyle=1;fontSize=14;" vertex="1" parent="1">
          <mxGeometry x="255" y="520" width="120" height="80" as="geometry" />
        </mxCell>
        <mxCell id="7yjw_nO1AyyXJqypANe9-11" style="edgeStyle=orthogonalEdgeStyle;rounded=0;orthogonalLoop=1;jettySize=auto;html=1;exitX=1;exitY=0.5;exitDx=0;exitDy=0;exitPerimeter=0;entryX=0.5;entryY=1;entryDx=0;entryDy=0;fontSize=14;fontStyle=1" edge="1" parent="1" source="7yjw_nO1AyyXJqypANe9-15" target="7yjw_nO1AyyXJqypANe9-9">
          <mxGeometry relative="1" as="geometry" />
        </mxCell>
        <mxCell id="7yjw_nO1AyyXJqypANe9-12" value="迁移成功后" style="edgeLabel;html=1;align=center;verticalAlign=middle;resizable=0;points=[];fontSize=14;fontStyle=1" vertex="1" connectable="0" parent="7yjw_nO1AyyXJqypANe9-11">
          <mxGeometry x="-0.2252" y="-2" relative="1" as="geometry">
            <mxPoint x="5" y="-12" as="offset" />
          </mxGeometry>
        </mxCell>
        <mxCell id="7yjw_nO1AyyXJqypANe9-13" style="edgeStyle=orthogonalEdgeStyle;rounded=0;orthogonalLoop=1;jettySize=auto;html=1;exitX=0.5;exitY=1;exitDx=0;exitDy=0;exitPerimeter=0;entryX=0.5;entryY=0;entryDx=0;entryDy=0;fontSize=14;fontStyle=1" edge="1" parent="1" source="7yjw_nO1AyyXJqypANe9-15" target="7yjw_nO1AyyXJqypANe9-10">
          <mxGeometry relative="1" as="geometry">
            <mxPoint x="355" y="450" as="sourcePoint" />
            <mxPoint x="350.0172712087758" y="520.1381696702065" as="targetPoint" />
          </mxGeometry>
        </mxCell>
        <mxCell id="7yjw_nO1AyyXJqypANe9-14" value="否，无法迁移" style="edgeLabel;html=1;align=center;verticalAlign=middle;resizable=0;points=[];fontSize=14;fontStyle=1" vertex="1" connectable="0" parent="7yjw_nO1AyyXJqypANe9-13">
          <mxGeometry x="-0.25" y="-1" relative="1" as="geometry">
            <mxPoint x="6" y="4" as="offset" />
          </mxGeometry>
        </mxCell>
        <mxCell id="7yjw_nO1AyyXJqypANe9-15" value="是否可迁移-dba运维" style="strokeWidth=2;html=1;shape=mxgraph.flowchart.decision;whiteSpace=wrap;fontSize=14;fontStyle=1" vertex="1" parent="1">
          <mxGeometry x="242.5" y="370" width="145" height="80" as="geometry" />
        </mxCell>
        <mxCell id="7yjw_nO1AyyXJqypANe9-16" style="edgeStyle=orthogonalEdgeStyle;rounded=0;orthogonalLoop=1;jettySize=auto;html=1;exitX=1;exitY=0.5;exitDx=0;exitDy=0;" edge="1" parent="1" source="7yjw_nO1AyyXJqypANe9-17" target="7yjw_nO1AyyXJqypANe9-19">
          <mxGeometry relative="1" as="geometry" />
        </mxCell>
        <mxCell id="7yjw_nO1AyyXJqypANe9-17" value="create" style="rounded=1;whiteSpace=wrap;html=1;direction=east;" vertex="1" parent="1">
          <mxGeometry x="82" y="964" width="120" height="60" as="geometry" />
        </mxCell>
        <mxCell id="7yjw_nO1AyyXJqypANe9-18" style="edgeStyle=orthogonalEdgeStyle;rounded=0;orthogonalLoop=1;jettySize=auto;html=1;exitX=1;exitY=0.5;exitDx=0;exitDy=0;" edge="1" parent="1" source="7yjw_nO1AyyXJqypANe9-19" target="7yjw_nO1AyyXJqypANe9-21">
          <mxGeometry relative="1" as="geometry" />
        </mxCell>
        <mxCell id="7yjw_nO1AyyXJqypANe9-19" value="过滤非使用的机器" style="rounded=0;whiteSpace=wrap;html=1;direction=east;" vertex="1" parent="1">
          <mxGeometry x="265" y="964" width="120" height="60" as="geometry" />
        </mxCell>
        <mxCell id="7yjw_nO1AyyXJqypANe9-20" style="edgeStyle=orthogonalEdgeStyle;rounded=0;orthogonalLoop=1;jettySize=auto;html=1;exitX=1;exitY=0.5;exitDx=0;exitDy=0;" edge="1" parent="1" source="7yjw_nO1AyyXJqypANe9-21" target="7yjw_nO1AyyXJqypANe9-23">
          <mxGeometry relative="1" as="geometry" />
        </mxCell>
        <mxCell id="7yjw_nO1AyyXJqypANe9-21" value="过滤理房通机器" style="whiteSpace=wrap;html=1;rounded=0;direction=east;" vertex="1" parent="1">
          <mxGeometry x="433" y="964" width="120" height="60" as="geometry" />
        </mxCell>
        <mxCell id="7yjw_nO1AyyXJqypANe9-22" style="edgeStyle=orthogonalEdgeStyle;rounded=0;orthogonalLoop=1;jettySize=auto;html=1;exitX=1;exitY=0.5;exitDx=0;exitDy=0;" edge="1" parent="1" source="7yjw_nO1AyyXJqypANe9-23" target="7yjw_nO1AyyXJqypANe9-24">
          <mxGeometry relative="1" as="geometry" />
        </mxCell>
        <mxCell id="7yjw_nO1AyyXJqypANe9-23" value="清除堡垒机旧IP数据" style="whiteSpace=wrap;html=1;rounded=0;direction=east;" vertex="1" parent="1">
          <mxGeometry x="601" y="964" width="120" height="60" as="geometry" />
        </mxCell>
        <mxCell id="7yjw_nO1AyyXJqypANe9-24" value="新增机器IP" style="whiteSpace=wrap;html=1;rounded=0;direction=east;" vertex="1" parent="1">
          <mxGeometry x="769" y="964" width="120" height="60" as="geometry" />
        </mxCell>
        <mxCell id="7yjw_nO1AyyXJqypANe9-25" style="edgeStyle=orthogonalEdgeStyle;rounded=0;orthogonalLoop=1;jettySize=auto;html=1;exitX=1;exitY=0.5;exitDx=0;exitDy=0;" edge="1" parent="1" source="7yjw_nO1AyyXJqypANe9-26" target="7yjw_nO1AyyXJqypANe9-28">
          <mxGeometry relative="1" as="geometry" />
        </mxCell>
        <mxCell id="7yjw_nO1AyyXJqypANe9-26" value="delete" style="rounded=1;whiteSpace=wrap;html=1;direction=east;" vertex="1" parent="1">
          <mxGeometry x="82" y="1110" width="120" height="60" as="geometry" />
        </mxCell>
        <mxCell id="7yjw_nO1AyyXJqypANe9-27" style="edgeStyle=orthogonalEdgeStyle;rounded=0;orthogonalLoop=1;jettySize=auto;html=1;exitX=1;exitY=0.5;exitDx=0;exitDy=0;" edge="1" parent="1" source="7yjw_nO1AyyXJqypANe9-28" target="7yjw_nO1AyyXJqypANe9-30">
          <mxGeometry relative="1" as="geometry" />
        </mxCell>
        <mxCell id="7yjw_nO1AyyXJqypANe9-28" value="过滤非使用的机器" style="rounded=0;whiteSpace=wrap;html=1;direction=east;" vertex="1" parent="1">
          <mxGeometry x="265" y="1110" width="120" height="60" as="geometry" />
        </mxCell>
        <mxCell id="7yjw_nO1AyyXJqypANe9-29" style="edgeStyle=orthogonalEdgeStyle;rounded=0;orthogonalLoop=1;jettySize=auto;html=1;exitX=1;exitY=0.5;exitDx=0;exitDy=0;" edge="1" parent="1" source="7yjw_nO1AyyXJqypANe9-30" target="7yjw_nO1AyyXJqypANe9-31">
          <mxGeometry relative="1" as="geometry" />
        </mxCell>
        <mxCell id="7yjw_nO1AyyXJqypANe9-30" value="过滤理房通机器" style="whiteSpace=wrap;html=1;rounded=0;direction=east;" vertex="1" parent="1">
          <mxGeometry x="433" y="1110" width="120" height="60" as="geometry" />
        </mxCell>
        <mxCell id="7yjw_nO1AyyXJqypANe9-31" value="清除堡垒机旧IP数据" style="whiteSpace=wrap;html=1;rounded=0;direction=east;" vertex="1" parent="1">
          <mxGeometry x="601" y="1110" width="120" height="60" as="geometry" />
        </mxCell>
        <mxCell id="7yjw_nO1AyyXJqypANe9-32" style="edgeStyle=orthogonalEdgeStyle;rounded=0;orthogonalLoop=1;jettySize=auto;html=1;exitX=1;exitY=0.5;exitDx=0;exitDy=0;" edge="1" parent="1" source="7yjw_nO1AyyXJqypANe9-33" target="7yjw_nO1AyyXJqypANe9-34">
          <mxGeometry relative="1" as="geometry" />
        </mxCell>
        <mxCell id="7yjw_nO1AyyXJqypANe9-33" value="update" style="rounded=1;whiteSpace=wrap;html=1;direction=east;" vertex="1" parent="1">
          <mxGeometry x="82" y="1271" width="120" height="60" as="geometry" />
        </mxCell>
        <mxCell id="7yjw_nO1AyyXJqypANe9-34" value="状态更新" style="rounded=0;whiteSpace=wrap;html=1;direction=east;" vertex="1" parent="1">
          <mxGeometry x="265" y="1271" width="120" height="60" as="geometry" />
        </mxCell>
      </root>
    </mxGraphModel>
  </diagram>
</mxfile>
